<svg width="500" height="383" viewBox="0 0 500 383" fill="none" xmlns="http://www.w3.org/2000/svg">
  <defs>
    <linearGradient id="panel" x1="44" y1="26" x2="454" y2="361" gradientUnits="userSpaceOnUse">
      <stop stop-color="#172554"/>
      <stop offset="1" stop-color="#070A24"/>
    </linearGradient>
    <linearGradient id="accent" x1="68" y1="73" x2="430" y2="307" gradientUnits="userSpaceOnUse">
      <stop stop-color="#67E8F9"/>
      <stop offset=".5" stop-color="#818CF8"/>
      <stop offset="1" stop-color="#CBACF9"/>
    </linearGradient>
  </defs>
  <rect width="500" height="383" rx="28" fill="#030014"/>
  <rect x="35" y="29" width="430" height="325" rx="20" fill="url(#panel)" stroke="#FFFFFF" stroke-opacity=".15"/>
  <rect x="35" y="29" width="430" height="48" rx="20" fill="#101638"/>
  <circle cx="61" cy="53" r="5" fill="#FB7185"/><circle cx="78" cy="53" r="5" fill="#FACC15"/><circle cx="95" cy="53" r="5" fill="#4ADE80"/>
  <rect x="65" y="105" width="150" height="26" rx="8" fill="#FFFFFF" fill-opacity=".1"/>
  <rect x="65" y="145" width="370" height="72" rx="14" fill="#0D1332" stroke="#67E8F9" stroke-opacity=".35"/>
  <path d="M87 162H133V200H87C80.373 200 75 194.627 75 188V174C75 167.373 80.373 162 87 162Z" fill="url(#accent)"/>
  <path d="M133 162H423C429.627 162 435 167.373 435 174V188C435 194.627 429.627 200 423 200H133V162Z" fill="#151C43"/>
  <rect x="151" y="174" width="116" height="8" rx="4" fill="#FFFFFF" fill-opacity=".8"/>
  <rect x="151" y="188" width="72" height="5" rx="2.5" fill="#C1C2D3" fill-opacity=".5"/>
  <rect x="65" y="235" width="174" height="90" rx="14" fill="#0D1332" stroke="#FFFFFF" stroke-opacity=".12"/>
  <rect x="258" y="235" width="177" height="90" rx="14" fill="#0D1332" stroke="#FFFFFF" stroke-opacity=".12"/>
  <path d="M84 299L111 272L133 286L166 252L190 273L219 246" stroke="url(#accent)" stroke-width="4" stroke-linecap="round" stroke-linejoin="round"/>
  <circle cx="303" cy="279" r="25" stroke="#818CF8" stroke-width="9"/><path d="M303 254A25 25 0 0 1 326 289" stroke="#67E8F9" stroke-width="9" stroke-linecap="round"/>
  <rect x="344" y="258" width="67" height="8" rx="4" fill="#FFFFFF" fill-opacity=".75"/><rect x="344" y="276" width="50" height="6" rx="3" fill="#C1C2D3" fill-opacity=".45"/><rect x="344" y="292" width="58" height="6" rx="3" fill="#C1C2D3" fill-opacity=".3"/>
</svg>
